<svg width="512" height="512" viewBox="0 0 512 512" fill="none" xmlns="http://www.w3.org/2000/svg">
<rect width="512" height="512" fill="#E5E5E5"/>
<path d="M512 0H0L220.791 480.397C240.158 522.534 271.842 522.534 291.209 480.397L512 0Z" fill="#81B3D3"/>
<path d="M136.114 3.34261L255.388 280.397L374.187 5.01756L136.114 3.34261Z" fill="#23A9E1"/>
<path fill-rule="evenodd" clip-rule="evenodd" d="M290.95 107.658H226.69C225.649 106.727 224.235 105.684 222.653 104.517C214.499 98.5003 201.874 89.1849 212.766 74.9853C218.218 68.1581 222.133 69.2536 225.833 70.289C229.874 71.4201 233.66 72.4795 238.915 63.0631C248.485 45.9426 262.195 72.4801 266.89 81.5676C267.858 83.44 268.442 84.5716 268.529 84.4279C273.165 76.8153 280.601 89.9964 286.092 99.731C288.019 103.147 289.706 106.138 290.95 107.658ZM325.862 82.219L289.28 82.614C303.735 49.7 310.231 53.2255 325.862 82.219Z" fill="white"/>
<path fill-rule="evenodd" clip-rule="evenodd" d="M133.565 0.00731421H256.204L378.435 0V110.006L256.208 396.759L255.392 398.771L133.565 106.663V0.00731421ZM148.447 8.43327V22.3815L142.496 8.44059L148.447 8.43327ZM362.192 8.4406V26.2434L369.909 8.4406H362.192ZM179.82 95.6771L179.486 95.0701L182.526 102.19L182.524 102.194L255.384 272.835L182.526 102.19C192.376 68.9652 206.481 63.9935 221.655 99.9413C224.082 105.92 225.554 111.357 226.734 115.717C228.406 121.89 229.493 125.905 231.877 126.243C236.101 126.838 238.179 121.312 240.245 115.816C241.886 111.451 243.52 107.105 246.216 105.859C251.489 103.415 253.918 106.039 256.303 108.616C257.06 109.433 257.812 110.246 258.649 110.891C259.696 111.698 260.674 112.209 261.58 112.681C263.906 113.895 265.753 114.859 267.045 119.96C267.476 121.657 267.836 123.356 268.187 125.014L268.187 125.014C269.745 132.368 271.136 138.936 277.812 141.12C287.266 144.222 295.259 137.256 303.576 130.008C309.538 124.812 315.667 119.472 322.619 117.59L331.95 96.0502C331.561 95.2456 322.797 77.4721 309.2 59.8448C296.478 43.3513 276.818 23.6468 255.38 23.442C233.895 23.208 214.509 42.8466 202.017 59.3694C188.872 76.7569 180.441 94.3779 179.852 95.6098L179.829 95.6583L179.82 95.6771ZM360.307 8.43327H348.334V58.2211L360.307 30.5953V8.43327ZM333.29 92.2322V8.4406H346.446V62.595L333.46 92.5686C333.405 92.4527 333.349 92.3405 333.29 92.2322ZM331.405 88.6116V16.2449L318.208 66.7714C322.813 73.5547 327.219 80.8464 331.405 88.6116ZM315.952 13.6264V63.5019C314.234 61.059 312.428 58.5795 310.517 56.1C308.053 52.8963 305.323 49.5757 302.377 46.2989L315.952 13.6264ZM299.954 43.6658V12.6536L288.378 32.8847C292.33 36.0759 296.194 39.6745 299.954 43.6658ZM301.839 8.4406H315.667L301.839 41.7202V8.4406ZM331.316 8.4406H317.837L317.833 60.0789L331.316 8.4406ZM285.199 8.4406H299.52L286.423 31.3194C286.181 31.1351 285.934 30.9587 285.687 30.7823C285.523 30.6647 285.358 30.5471 285.195 30.4271V8.4406H285.199ZM283.31 29.0667V11.4906L271.809 22.579C275.707 24.269 279.549 26.4358 283.31 29.0667ZM267.717 11.7978V21.0137C265.04 20.128 262.341 19.5128 259.632 19.1705L267.717 11.7978ZM250.954 19.134L242.614 11.5126V20.9845C245.344 20.0848 248.127 19.4485 250.954 19.134ZM227.328 11.4906L238.7 22.4473C234.767 24.1223 230.971 26.3092 227.324 28.8472L227.328 11.4906ZM228.463 8.4406L240.722 20.2677L240.725 8.4406H228.463ZM253.952 17.7662L243.734 8.4406H253.952V17.7662ZM266.9 8.4406H256.211V18.1977L266.9 8.4406ZM270.158 8.4406H282.179L270.158 20.0263V8.4406ZM211.089 8.44791L224.111 31.1951L225.443 30.2077V8.44791H211.089ZM210.688 12.7121L222.163 32.7603C218.241 35.9766 214.41 39.6123 210.688 43.6512V12.7121ZM208.195 46.416L194.69 13.6483V64.0432C199.006 57.6327 203.516 51.746 208.195 46.416ZM179.237 16.2668L192.542 67.2761C187.865 74.3977 183.421 82.0954 179.237 90.3231V16.2668ZM179.319 8.4406L192.801 60.152V8.4406H179.319ZM208.8 41.9762L194.976 8.4406H208.8V41.9762ZM150.335 26.7993L162.308 54.8346V8.4406H150.335V26.7993ZM164.192 8.4406H177.345V90.0672L164.189 59.2597L164.192 8.4406Z" fill="#491213"/>
<path d="M245.712 336.644L255.395 305.778L265.034 336.644L255.395 367.583L245.712 336.644Z" fill="#23A9E1"/>
<path fill-rule="evenodd" clip-rule="evenodd" d="M196.192 85.7079C189.577 89.76 185.504 107.738 195.239 108.536H195.243C194.842 96.3354 196.601 91.1716 197.142 105.99C198.748 105.844 200.414 105.757 202.109 105.668C208.201 105.349 214.652 105.012 219.9 101.836C215.671 93.8559 202.481 81.846 196.192 85.7079ZM218.131 168.117C197.369 167.781 211.404 104.864 218.468 108.667C226.593 113.758 225.681 168.6 218.131 168.117ZM227.554 147.235C227.146 161.659 230.812 159.442 232.834 147.564V147.557C232.846 150.181 232.7 152.826 232.557 155.404C232.178 162.252 231.825 168.633 234.537 172.937C239.449 180.756 248.877 170.033 251.96 162.024C246.035 157.489 253.251 129.937 257.696 125.739C253.125 144.616 247.856 172.74 259.803 172.74C253.748 172.74 264.634 123.398 264.693 123.793C264.002 119.281 262.286 118.794 260.237 118.213C258.719 117.782 257.019 117.299 255.418 115.089C249.548 106.991 246.481 113.962 243.501 120.735C242.201 123.689 240.918 126.606 239.427 128.218C237.646 130.14 235.901 131.12 234.32 132.007C230.662 134.06 227.881 135.621 227.554 147.235ZM275.36 223.493C262.623 208.718 265.847 197.725 276.213 187.47C277.549 186.148 279.298 183.976 281.251 181.551L281.251 181.55L281.251 181.55C287.225 174.131 295.112 164.336 298.967 169.192L275.36 223.493ZM266.7 241.903C265.231 241.768 263.729 241.586 262.21 241.401C255.879 240.633 249.248 239.827 243.467 242.305C247.945 244.514 258.868 250.826 248.698 256.158C252.346 266.449 258.263 265.791 262.144 256.758C261.195 255.837 260.507 254.79 259.826 253.75C259.375 253.064 258.927 252.381 258.408 251.74C262.433 250.307 266.199 245.728 266.7 241.903ZM261.094 230.39C264.318 224.246 267.821 224.568 271.282 230.39H271.278C269.52 240.498 237.668 236.929 233.717 217.81C235.662 218.389 238.195 218.448 240.948 218.511C248.586 218.687 257.917 218.901 261.094 230.39ZM246.15 214.657C244.477 213.636 241.664 212.982 238.811 212.319C231.756 210.679 224.46 208.983 233.58 201.536C237.531 198.31 258.041 201.996 246.15 214.657ZM253.243 192.495C251.474 184.618 254.598 175.234 259.699 182.051C264.147 187.997 257.651 196.803 253.243 192.495ZM242.721 193.161C234.318 198.127 223.158 187.427 236.674 182.043C245.062 178.708 253.985 185.744 242.721 193.161Z" fill="#DC6243"/>
<path d="M266.292 188.941C255.503 167.093 282.401 169.104 286.735 161.417C289.888 163.494 312.669 122.089 318.215 124.663C314.231 133.879 305.645 163.297 299.49 163.297C294.76 163.297 289.974 161.907 286.312 168.549C280.954 178.276 272.076 183.221 266.292 188.941Z" fill="#F49774"/>
<path d="M269.828 162.229C263.921 168.49 258.334 143.68 268.533 146.094C275.308 147.703 282.171 144.968 288.642 147.169C284 158.045 277.304 164.036 269.828 162.229Z" fill="#F4B1A4"/>
<path fill-rule="evenodd" clip-rule="evenodd" d="M145.679 105.932C147.018 114.848 151.556 118.117 155.811 115.63C155.946 115.925 156.03 116.38 156.109 116.807C156.145 117.005 156.181 117.197 156.219 117.364C155.85 117.644 155.167 118.224 154.35 118.918L154.35 118.918C152.077 120.849 148.77 123.658 148.306 123.325C147.501 120.16 146.234 117.821 144.96 115.468L144.96 115.468C144.073 113.83 143.182 112.184 142.44 110.247C140.34 104.776 139.112 98.1713 139.442 91.252C139.969 78.4888 146.484 64.4162 153.4 66.3472C156.813 67.32 159.662 72.1035 161.785 77.1941C162.387 78.5788 162.911 80.0307 163.429 81.4634C164.529 84.511 165.598 87.4714 167.324 89.5113C165.254 94.719 163.183 99.9121 161.106 105.112C159.879 104.044 160.252 102.377 160.66 100.555C160.774 100.045 160.891 99.5225 160.976 98.9978C161.581 95.2164 162.033 90.9156 161.202 87.1122C159.31 78.5253 154.134 78.2328 150.665 83.1333C147.155 88.0923 144.369 97.2204 145.679 105.932ZM176.937 119.982C177.37 119.798 177.699 120.105 177.992 120.377C178.418 120.774 178.767 121.099 179.245 119.719L173.345 105.866C172.451 103.767 171.32 101.514 171.642 105.954C171.858 108.945 156.917 132.848 156.004 133.587C155.504 133.994 155.093 133.673 154.72 133.381C154.234 133.002 153.811 132.671 153.333 134.047C154.08 135.797 154.827 137.549 155.573 139.3L155.573 139.301L155.574 139.302L155.574 139.303L155.575 139.304L155.575 139.305L155.576 139.306L155.576 139.307L155.576 139.308L155.577 139.309L155.577 139.31L155.578 139.311L155.578 139.312L155.581 139.319L155.582 139.321L155.582 139.322L155.584 139.326L155.585 139.328C156.594 141.696 157.603 144.064 158.616 146.43C158.807 146.878 158.994 147.338 159.182 147.8L159.182 147.8L159.182 147.8C159.576 148.772 159.973 149.749 160.416 150.621C161.116 152.003 160.983 148.659 160.955 147.946C160.95 147.829 160.948 147.783 160.954 147.842C160.755 145.675 161.914 143.798 162.728 142.478C162.829 142.314 162.925 142.159 163.013 142.013C166.738 135.547 176.017 120.224 176.937 119.982ZM189.637 153.123C190.872 156.056 191.781 159.223 191.577 163.173C191.529 164.107 191.252 165.259 190.972 166.427C190.429 168.687 189.871 171.009 190.928 171.935L196.326 158.477C194.879 157.76 183.407 130.712 183.222 127.75L175.612 135.986C175.872 138.056 177.146 137.404 178.369 136.777C179 136.454 179.618 136.138 180.076 136.205C182.072 136.483 183.511 138.86 184.78 141.669C184.385 142.323 183.935 143.069 183.444 143.882L183.441 143.888L183.441 143.888L183.441 143.889L183.441 143.889C178.774 151.627 170.394 165.525 169.427 165.842C169.25 165.898 168.906 165.609 168.524 165.288C167.742 164.631 166.798 163.838 166.778 165.572C166.767 166.488 167.887 168.672 168.634 170.129L168.635 170.13C168.901 170.649 169.12 171.076 169.223 171.321L174.592 183.916C175.408 183.182 175.249 182.208 175.064 181.078C174.912 180.147 174.742 179.11 175.085 178.013C175.527 176.602 182.707 164.66 187.023 157.481L187.024 157.481L187.024 157.48L187.024 157.48L187.025 157.479C188.144 155.617 189.07 154.076 189.637 153.123ZM250.464 288.509C248.299 285.657 243.598 273.668 241.017 267.083L241.017 267.083C240.294 265.241 239.738 263.821 239.449 263.143L238.659 261.293C238.633 261.22 237.972 262.353 238.065 262.2C237.867 262.528 237.93 263.162 238.003 263.884C238.082 264.677 238.172 265.576 237.939 266.296C236.028 272.191 224.07 289.964 223.451 290.813C222.806 291.696 222.13 291.551 221.515 291.418C220.857 291.277 220.268 291.151 219.863 292.32C220.379 293.525 221.18 295.503 222.067 297.691L222.069 297.694L222.069 297.695L222.07 297.697L222.07 297.697C224.163 302.862 226.731 309.197 227.135 309.325C227.94 309.58 227.795 307.593 227.684 306.072C227.636 305.413 227.595 304.841 227.64 304.578C227.919 302.929 233.275 294.124 235.749 290.057L235.749 290.057L235.772 290.019L235.806 289.964L236.188 289.335C236.877 288.195 237.595 290.463 238.091 292.028L238.092 292.028L238.092 292.03L238.092 292.031C238.178 292.302 238.257 292.551 238.329 292.758C239.115 295.062 239.468 297.513 239.045 300.212C238.962 300.733 238.776 301.331 238.585 301.944C238.133 303.395 237.653 304.937 238.444 305.785C239.072 304.337 240.18 301.789 241.297 299.22L241.319 299.169L241.343 299.113L241.356 299.084L241.361 299.072L241.395 298.995C242.898 295.538 244.393 292.099 244.736 291.303C245.185 290.278 244.232 290.673 243.794 290.855C243.637 290.919 243.547 290.957 243.608 290.893C242.718 291.8 241.879 292.012 241.048 290.762C240.814 290.418 238.425 285.627 238.662 285.225C238.906 284.823 239.161 284.358 239.428 283.875C240.301 282.292 241.287 280.501 242.313 280.003C244.391 278.993 246.124 287.2 246.432 290.111C246.721 292.854 246.68 295.743 246.246 298.42C246.171 298.881 246.06 299.319 245.955 299.734C245.641 300.972 245.379 302.005 246.291 302.837L251.422 288.97C251.087 289.004 250.754 288.844 250.464 288.509ZM208.896 229.059C210.956 225.604 213.531 223.568 216.231 223.259C220.527 222.776 224.883 226.653 227.695 234.04C231.821 244.894 231.146 260.086 225.84 268.9C219.589 277.684 211.864 276.272 207.071 263.823C202.9 253.013 203.59 237.858 208.896 229.059ZM220.646 233.396C224.167 232.606 226.222 239.24 224.723 246.328C223.165 253.496 219.418 260.876 215.73 263.736C211.352 267.137 208.269 259.808 210.05 251.616C211.616 244.419 215.355 237.112 219.051 234.208C219.607 233.777 220.141 233.513 220.646 233.404V233.396ZM211.383 200.196C211.039 199.913 210.683 199.62 210.321 199.532V199.524C207.739 198.916 204.834 199.979 202.093 200.983C201.044 201.367 200.019 201.742 199.046 202.011C196.645 202.677 190.987 213.538 190.624 215.586C190.585 215.87 190.663 216.511 190.753 217.25C190.956 218.907 191.219 221.054 190.349 220.75C190.055 220.642 189.351 218.754 188.881 217.496C188.716 217.054 188.58 216.69 188.501 216.508L182.502 202.465C183.034 200.98 183.482 201.485 184 202.068C184.411 202.531 184.866 203.042 185.44 202.647C186.428 201.964 189.812 196.279 191.413 193.589C191.628 193.227 191.811 192.919 191.952 192.685C194.007 189.278 195.813 176.792 196.404 172.708L196.404 172.708C196.498 172.058 196.561 171.621 196.589 171.467C196.816 170.224 196.894 163.092 196.805 163.238C197.586 161.968 198.122 163.527 198.665 165.107C198.828 165.583 198.993 166.061 199.164 166.464L205.768 181.912C205.278 183.3 204.825 182.894 204.325 182.446C203.846 182.015 203.323 181.546 202.682 182.585C202.093 183.542 200.679 191.574 200.037 195.218L199.96 195.655L199.891 196.043C200.033 195.993 200.213 195.933 200.422 195.863C202.397 195.199 207.012 193.647 207.542 191.815C207.792 190.949 207.646 190.209 207.515 189.545C207.342 188.672 207.196 187.93 208.009 187.207L213.378 199.729C212.812 201.373 212.126 200.808 211.383 200.196ZM300.251 249.041C300.711 252.121 300.971 255.368 300.77 258.586C300.511 262.726 298.411 272.469 295.535 269.697C293.553 267.778 291.744 264.5 290.013 261.363C289.283 260.038 288.566 258.739 287.855 257.577C289.785 253.13 291.484 249.276 294.73 251.433C295.621 252.018 296.385 251.258 295.45 250.19C295.265 249.977 294.879 249.509 294.374 248.894L294.373 248.894C292.217 246.275 287.881 241.006 287.596 241.639C287.3 242.311 287.537 243.224 287.812 244.291C288.143 245.571 288.531 247.071 288.126 248.639C287.7 250.284 287.051 251.754 286.419 253.183C286.237 253.597 286.055 254.007 285.882 254.417C285.628 253.996 285.349 253.57 285.065 253.136C283.407 250.602 281.557 247.774 283.34 243.709C284.646 240.579 286.349 238.151 288.39 237.346C288.87 237.153 289.561 237.324 290.272 237.5C291.583 237.824 292.963 238.165 293.22 236.278C291.652 234.787 290.083 233.303 288.515 231.82C287.467 230.83 286.42 229.84 285.373 228.847C285.716 231.902 280.308 243.906 277.189 250.83C276.424 252.526 275.797 253.918 275.426 254.798C275.354 254.966 275.212 255.245 275.039 255.58C274.555 256.525 273.838 257.921 273.827 258.579C273.807 260.421 275.05 259.299 275.351 259.027C275.382 258.999 275.403 258.98 275.411 258.974C276.58 258.126 291.825 283.235 292.204 284.954C292.318 285.583 292.204 286.227 292.102 286.81C291.988 287.461 291.887 288.035 292.129 288.428C292.127 288.424 292.131 288.431 292.14 288.448C292.219 288.592 292.685 289.437 292.742 289.306C292.899 288.934 293.309 287.889 293.893 286.402L293.894 286.402C296.795 279.018 303.978 260.736 305.686 259.786C303.768 254.025 301.867 248.242 299.984 242.437C298.92 243.356 299.422 245.424 299.874 247.286L299.874 247.286C300.025 247.911 300.172 248.514 300.251 249.041ZM271.624 287.016C274.3 283.753 281.129 275.426 285.41 280.873C289.61 287.763 288.694 299.012 285.9 307.058C284.561 310.898 282.869 314.109 281.099 317.173L280.983 317.365C279.684 319.511 278.725 321.095 278.48 324.597L270.095 312.551C270.513 310.39 271.349 311.315 272.175 312.229C272.478 312.565 272.78 312.899 273.059 313.077C274.51 314.021 276.087 314.284 277.571 313.509C280.109 312.178 282.68 307.489 283.359 302.399C284.205 296.072 281.055 294.156 278.658 296.372C277.504 297.439 276.403 298.868 275.317 300.278L275.317 300.278C274.884 300.84 274.454 301.399 274.024 301.931C271.601 304.907 268.752 307.16 266.017 304.352C263.613 301.894 261.977 297.11 261.977 291.727C261.977 285.898 263.658 280.792 265.639 276.733C266.1 275.792 266.656 274.867 267.23 273.915C268.725 271.432 270.332 268.762 270.64 265.14C272.699 267.89 274.758 270.633 276.825 273.376C277.167 273.836 277.106 273.991 276.919 274.47C276.862 274.616 276.794 274.791 276.721 275.014C276.546 275.554 275.347 275.289 274.367 275.072C273.873 274.962 273.435 274.865 273.211 274.89C271 275.153 268.774 277.062 267.646 281.012C266.348 285.561 268.154 290.476 270.659 288.143C270.842 287.971 271.174 287.565 271.624 287.017L271.624 287.016ZM350.772 75.5997C350.642 75.7163 350.529 75.8978 350.445 76.1263L347.514 83.0748L344.494 90.2573C344.391 90.5058 344.285 90.7315 344.188 90.9409L344.188 90.9411L344.188 90.9412L344.188 90.9413L344.187 90.9426L344.187 90.9432C343.699 91.9904 343.4 92.6313 344.402 93.6731C346.416 91.6836 357.454 128.547 356.467 133.843C354.723 135.627 339.808 109.83 339.408 108.126C339.373 107.929 339.411 107.454 339.457 106.883C339.573 105.441 339.738 103.386 338.903 103.642C338.494 103.767 337.705 106.047 337.182 107.56L337.182 107.561C336.999 108.09 336.849 108.524 336.759 108.74L334.618 113.824C335.103 115.22 335.458 114.889 335.899 114.479C336.186 114.211 336.51 113.91 336.929 114.029C337.776 114.364 340.802 119.39 342.04 121.445L342.04 121.445L342.04 121.445L342.049 121.46C342.158 121.641 342.253 121.799 342.331 121.928C341.751 121.969 340.839 122.053 339.86 122.143C337.899 122.323 335.664 122.528 335.264 122.469C334.018 122.775 333.865 121.695 333.692 120.477C333.564 119.57 333.425 118.587 332.815 118.044L327.331 131.173L324.141 138.802C324.125 138.838 324.112 138.868 324.101 138.893L324.101 138.893C324.07 138.961 324.056 138.992 324.06 139.021C324.064 139.047 324.081 139.071 324.114 139.115L324.114 139.115C324.146 139.159 324.193 139.223 324.256 139.328C324.367 139.509 324.452 139.655 324.519 139.77C324.667 140.022 324.727 140.126 324.788 140.126C324.831 140.126 324.873 140.074 324.946 139.986C325.06 139.847 325.249 139.618 325.628 139.358C326.845 138.516 341.419 162.763 341.945 163.999C342.36 164.973 342.319 166.022 342.282 166.985C342.237 168.135 342.197 169.163 342.94 169.799L347.273 159.428C347.31 159.339 347.344 159.266 347.374 159.204L347.397 159.158C347.524 158.897 347.549 158.845 347.322 158.477C346.754 157.556 346.464 157.96 346.105 158.459C345.813 158.865 345.477 159.333 344.91 159.208C343.799 158.848 336.685 147.148 332.447 140.18L332.447 140.179L332.446 140.178L332.446 140.178L332.446 140.177L332.446 140.177L332.442 140.171L332.429 140.149C331.775 139.074 331.19 138.113 330.707 137.324L350.453 135.883C351.176 135.832 353.198 140.133 353.031 141.662C352.972 142.208 352.845 142.667 352.732 143.074C352.476 143.995 352.295 144.647 353.158 145.428C353.615 144.343 354.083 143.26 354.552 142.176L354.554 142.173C355.267 140.524 355.981 138.871 356.664 137.2L357.213 135.854C357.427 135.517 357.598 135.086 357.714 134.596L358.122 133.594C358.222 133.367 358.345 133.093 358.485 132.781C359.761 129.933 362.42 123.996 362.062 123.383C361.543 122.496 361.148 122.917 360.724 123.369C360.24 123.886 359.718 124.442 358.931 123.127C358.168 122.05 356.361 115.921 355.642 113.485L355.642 113.485L355.642 113.484L355.642 113.484L355.642 113.484C355.57 113.24 355.509 113.034 355.462 112.873C354.892 110.967 356.502 109.068 357.465 107.932C357.581 107.795 357.688 107.669 357.78 107.555C359.65 105.266 365.598 101.945 366.165 109.216C366.205 109.742 366.089 110.3 365.979 110.823C365.835 111.513 365.704 112.142 365.961 112.558C365.981 112.592 366.011 112.653 366.047 112.729C366.204 113.051 366.485 113.629 366.614 113.326L374.561 94.4849C374.487 94.361 374.408 94.2063 374.328 94.0464C374.156 93.7062 373.972 93.3419 373.782 93.1976C372.024 96.6573 353.503 82.08 352.152 80.0686C351.869 79.8468 351.696 78.7891 351.526 77.7548C351.327 76.5386 351.133 75.3546 350.772 75.5997ZM358.422 101.294C355.599 98.9393 352.772 96.5987 349.937 94.2728L353.707 107.058C354.407 105.692 355.179 104.478 356.011 103.438H356.018C356.764 102.509 357.569 101.763 358.422 101.294ZM325.495 150.98C321.388 150.424 317.221 153.979 314.279 160.613C309.697 171.584 310.153 187.514 315.737 196.781C321.369 205.924 329.39 203.598 333.976 192.759C338.547 181.817 338.232 165.842 332.548 156.67C330.564 153.345 328.095 151.352 325.498 150.98H325.495ZM326.582 167.525C324.979 165.411 322.426 162.661 320.119 162.383C318.735 162.215 317.436 162.946 316.483 165.243C313.459 172.528 318.197 180.793 320.961 184.728C323.721 188.655 328.841 194.338 331.809 188.195C331.833 188.154 331.856 188.11 331.876 188.063C332.37 186.841 332.24 187.127 332.062 187.551C334.796 179.864 329.476 171.335 326.582 167.525ZM308.517 193.688C304.013 193.197 299.602 197.315 296.277 205.215C294.335 209.814 292.397 214.422 290.461 219.029L289.146 222.154C289.604 223.469 290.105 223.193 290.663 222.885C291.136 222.624 291.65 222.34 292.215 222.981C293.265 224.173 307.252 247.206 307.482 248.471C307.654 249.423 307.558 250.041 307.476 250.565C307.372 251.236 307.291 251.754 307.831 252.625C308.243 253.306 318.753 227.721 319.714 223.222C321.376 214.891 320.052 205.763 316.672 200C316.943 200.439 317.329 201.06 316.516 199.729C313.956 195.94 311.222 193.973 308.517 193.68V193.688ZM305.597 205.515C305.293 205.361 304.963 205.266 304.61 205.244V205.237C302.158 205.054 298.741 207.855 296.979 211.666C296.389 212.946 311.159 236.527 311.893 235.137C312.571 233.854 312.845 233.39 312.995 233.135C313.177 232.827 313.18 232.822 313.496 232.051C318.152 220.984 310.873 208.17 305.597 205.515Z" fill="white"/>
</svg>
