<svg width="457" height="368" viewBox="0 0 457 368" fill="none" xmlns="http://www.w3.org/2000/svg">
<path fill-rule="evenodd" clip-rule="evenodd" d="M181.39 55.737L178.545 60.614H175.816L174.946 62.048H177.703L171.634 72.431C170.357 74.639 171.258 76.677 173.696 76.677C174.919 76.677 176.234 76.04 177.549 75.056L176.771 76.39H179.817L184.405 68.503C189.049 62.736 191.111 63.483 189.804 65.693L185.884 72.433C184.606 74.643 185.507 76.681 187.945 76.681C189.741 76.681 191.733 75.311 193.638 73.476C193.784 75.333 195.305 76.681 197.728 76.681C201.151 76.681 204.548 74.041 207.044 71.173C206.847 70.77 206.325 70.312 205.918 70.14L205.715 70.366C203.537 72.863 200.751 74.841 198.633 74.841C196.773 74.841 195.669 73.695 197.063 71.286L197.353 70.766C199.299 71.571 202.957 71.197 205.221 67.326L205.658 66.579C207.283 63.826 205.716 61.761 203.248 61.761C200.809 61.761 198.865 63.024 197.588 65.202L194.658 70.167L194.482 70.367C192.305 72.861 190.187 74.839 188.851 74.839C188.185 74.839 187.805 74.379 188.501 73.204L192.856 65.661C194.162 63.396 192.916 61.761 191.232 61.761C189.925 61.761 188.53 62.478 187.022 64.026L191.84 55.737H188.821L180.398 70.175L180.228 70.365C178.052 72.861 175.931 74.839 174.595 74.839C173.928 74.839 173.551 74.379 174.249 73.204L180.721 62.046H183.188L184.06 60.613H181.564L184.409 55.738L181.39 55.737ZM149.081 60.616L151.926 55.741H154.945L152.099 60.614H154.598L153.726 62.05H151.261L144.785 73.208C144.088 74.383 144.466 74.843 145.133 74.843C146.468 74.843 148.59 72.864 150.766 70.368L150.922 70.192L152.159 68.102L153.639 65.549C155.381 62.565 157.179 61.649 159.501 61.649C162.347 61.649 164.03 64.602 162.202 67.729L159.357 72.575C160.868 72.546 162.551 71.831 163.915 70.368L164.12 70.14C164.526 70.312 165.048 70.769 165.248 71.173C163.708 72.979 160.864 74.069 159.064 74.069H158.398C155.129 78.153 149.782 77.41 149.788 73.608C147.922 75.377 145.985 76.681 144.231 76.681C141.793 76.681 140.892 74.643 142.17 72.434L148.238 62.051H145.481L146.351 60.616H149.081ZM159.879 66.614C160.907 64.872 160.441 63.667 159.457 63.577C158.692 63.507 157.614 64.113 156.687 65.669L155.236 68.106L152.942 72.034C151.142 75.131 154.599 75.59 156.021 73.18L156.051 73.124C155.876 72.836 155.76 72.491 155.76 72.12C155.76 71.145 156.543 70.341 157.53 70.341H157.675L159.879 66.614ZM203.191 66.583C204.203 64.839 203.671 63.922 202.702 63.979V63.98C201.95 64.024 200.933 64.658 200.17 65.95L198.224 69.307C199.357 69.709 201.304 69.767 202.754 67.329L203.191 66.583ZM247.02 58.516C245.306 60.036 245.162 61.73 246.237 63.106L246.499 63.45L246.437 63.5369C245.108 65.3928 243.333 67.8725 241.389 70.134L241.391 70.137L241.188 70.366C239.823 71.827 238.142 72.546 236.63 72.575L239.473 67.727C241.303 64.601 239.62 61.647 236.773 61.647C234.453 61.647 232.653 62.565 230.913 65.547L229.429 68.1L228.191 70.192L228.037 70.368C225.54 73.208 223.394 75.039 221.012 76.044L227.775 64.63H226.005C226.005 63.396 224.729 61.76 222.841 61.76C221.217 61.76 218.951 63.025 217.673 65.204L213.435 72.431C212.157 74.639 213.057 76.677 215.495 76.677C216.338 76.677 217.355 76.303 218.372 75.673L217.529 77.077C213.465 78.31 210.909 79.945 210.909 82.183C210.909 85.052 215.351 85.654 217.529 81.983L219.821 78.053C222.237 77.31 224.604 75.906 227.061 73.589C227.04 77.406 232.398 78.156 235.671 74.065H236.339C238.139 74.065 240.984 72.976 242.523 71.169C243.972 69.505 245.103 68.014 247.513 64.774L247.918 65.263C248.295 65.75 248.443 66.353 248.093 66.954L244.9 72.433C243.62 74.643 244.521 76.679 246.961 76.679C248.491 76.679 250.165 75.684 251.803 74.257C251.753 75.643 252.69 76.679 254.422 76.679C255.262 76.679 256.279 76.306 257.296 75.675L256.454 77.077C252.389 78.31 249.838 79.945 249.838 82.183C249.838 85.052 254.278 85.653 256.454 81.983L258.746 78.053C261.206 77.295 263.616 75.847 266.123 73.454C266.259 75.322 267.781 76.679 270.213 76.679C272.671 76.679 275.112 75.316 277.217 73.489C277.1 77.394 282.527 78.192 285.829 74.067H286.497C287.442 74.067 288.672 73.759 289.854 73.214C289.041 75.287 289.788 76.679 291.515 76.679C293.171 76.679 295.028 75.187 296.479 73.811C296.189 75.416 297.146 76.679 299.063 76.679C301.559 76.679 304.433 74.042 306.931 71.173L306.929 71.171C308.284 69.6266 309.512 67.9951 310.499 66.6853L310.499 66.6851C310.759 66.3395 311.003 66.0163 311.227 65.723C310.827 66.7632 310.633 68.082 310.443 69.3748C310.068 71.9297 309.707 74.383 307.801 74.383C306.785 74.383 306.381 73.293 306.381 73.293L304.491 74.268C304.491 74.268 305.042 76.68 307.801 76.68C308.069 76.68 308.313 76.6544 308.575 76.6269L308.641 76.62C308.656 76.62 308.671 76.6133 308.686 76.6065C308.702 76.5998 308.717 76.593 308.732 76.593C311.808 76.193 314.856 73.783 317.12 71.173C316.947 70.714 316.424 70.255 315.99 70.139L315.787 70.368C314.722 71.6003 313.502 72.6893 312.157 73.608C312.532 72.4942 312.729 71.1467 312.942 69.69C313.273 67.4322 313.641 64.9123 314.771 62.594L312.507 61.389C312.276 61.7019 311.994 62.0902 311.672 62.5352C310.249 64.4981 308.026 67.5651 305.801 70.137V70.139L305.598 70.368C303.422 72.864 301.303 74.84 299.967 74.84C299.3 74.84 298.922 74.381 299.62 73.206L306.064 62.048H303.044L297.674 71.313C295.381 73.377 293.612 74.525 293.03 74.266C292.33 73.9747 292.929 72.9903 293.321 72.3458C293.351 72.2956 293.381 72.2475 293.408 72.202L299.301 62.05H296.281L291.547 70.142L291.348 70.368C289.984 71.831 288.301 72.548 286.79 72.578L289.635 67.729C291.463 64.602 289.785 61.649 286.936 61.649C284.613 61.649 282.813 62.567 281.072 65.552L279.59 68.102L278.353 70.192L278.198 70.37C276.022 72.866 273.234 74.843 271.115 74.843C269.257 74.843 268.155 73.697 269.548 71.288L269.838 70.77C271.782 71.574 275.442 71.2 277.705 67.327L278.143 66.581C279.766 63.827 278.201 61.762 275.733 61.762C273.293 61.762 271.346 63.027 270.07 65.206L267.144 70.171L266.969 70.368C264.47 73.208 262.324 75.041 259.941 76.046L266.705 64.63H264.933C264.933 63.396 263.656 61.762 261.769 61.762C260.144 61.762 257.88 63.025 256.602 65.204L253.706 70.141L253.698 70.137L253.495 70.367C251.319 72.862 249.197 74.841 247.861 74.841C247.194 74.841 246.819 74.381 247.515 73.206L250.533 67.986C251.578 66.179 251.084 65.116 250.096 63.94L248.413 61.93C247.978 61.385 247.978 60.784 248.588 60.21L247.02 58.516ZM237.15 66.614C238.177 64.872 237.71 63.666 236.726 63.576V63.577C235.962 63.507 234.886 64.113 233.958 65.669L232.505 68.106L230.213 72.034C228.413 75.131 231.869 75.59 233.291 73.18L233.319 73.124C233.145 72.836 233.029 72.491 233.029 72.12C233.029 71.145 233.813 70.341 234.799 70.341H234.946L237.15 66.614ZM286.884 63.576C287.868 63.666 288.337 64.872 287.31 66.614L285.104 70.341H284.957C283.971 70.341 283.189 71.145 283.189 72.12C283.189 72.491 283.305 72.836 283.478 73.124L283.448 73.18C282.027 75.59 278.573 75.131 280.373 72.034L282.665 68.106L284.116 65.669C285.043 64.113 286.119 63.507 286.884 63.577V63.576ZM275.669 66.583C276.681 64.84 276.152 63.924 275.184 63.981V63.982C274.432 64.026 273.414 64.66 272.652 65.952L270.704 69.307C271.837 69.709 273.783 69.767 275.234 67.329L275.669 66.583ZM222.781 64.182C223.804 64.176 224.459 65.066 223.626 66.582L221.334 70.542C219.504 73.439 217.674 74.842 216.396 74.842C215.729 74.842 215.351 74.383 216.047 73.208L220.259 65.952C220.969 64.735 221.986 64.187 222.781 64.182ZM262.549 66.582C263.382 65.066 262.727 64.176 261.704 64.182C260.909 64.187 259.892 64.735 259.182 65.952L254.972 73.208C254.278 74.383 254.654 74.842 255.321 74.842C256.597 74.842 258.429 73.439 260.257 70.542L262.549 66.582ZM216.366 79.09L216.365 79.0913C214.075 79.9792 213.348 80.8671 213.348 81.641C213.348 82.444 214.364 82.615 215.002 81.497L216.365 79.0913L216.366 79.091V79.09ZM255.29 79.0913L255.291 79.09V79.091L255.29 79.0913ZM255.29 79.0913L253.929 81.497C253.289 82.615 252.273 82.444 252.273 81.641C252.273 80.8671 252.999 79.9792 255.29 79.0913ZM100.641 67.478H129.563V69.428H100.641V67.478ZM356.593 67.478H327.671V69.428H356.593V67.478Z" fill="#766458"/>
<path fill-rule="evenodd" clip-rule="evenodd" d="M194.44 37.011V44.747H173.624V0H194.44V7.67H181.24V18.474H191.775V26.144H181.24V37.01L194.44 37.011ZM215.786 44.747V37.011L205.189 37.01V0H197.573V44.747H215.786ZM322.316 44.747V37.011H309.115V26.144H319.65V18.474H309.115V7.671H322.316V0H301.5V44.747H322.316ZM297.075 0.001H289.524L282.731 21.606L275.94 0.001H268.388V44.748H276.005V22.758L278.987 34.136H286.412L289.459 22.758V44.748H297.075V0.001ZM257.615 7.671H252.092V37.011H257.616L257.615 7.671ZM265.295 4.732C265.295 2.11 263.137 0.001 260.597 0.001L249.173 0.002C246.573 0.002 244.477 2.111 244.477 4.732V40.017C244.477 42.574 246.573 44.747 249.173 44.747H260.597C263.137 44.747 265.295 42.574 265.295 40.017V4.732ZM232.587 28.253L240.265 26.463V40.015C240.265 42.572 238.108 44.745 235.569 44.745H224.144C221.544 44.745 219.449 42.572 219.449 40.015V4.731C219.449 2.109 221.544 0.001 224.144 0.001H235.567C238.107 0.001 240.264 2.109 240.264 4.731V13.808L232.586 15.598V7.67H227.064V37.01H232.586L232.587 28.253ZM169.857 0.001H162.18L161.61 37.011H160.848L155.96 0.001H148.408L143.648 37.011H142.824L142.189 0.001H134.573L135.715 44.747H150.248L152.215 26.273L154.183 44.747H168.653L169.857 0.001Z" fill="#81B3D3"/>
<path fill-rule="evenodd" clip-rule="evenodd" d="M9.289 205.909C9.366 205.987 9.405 206.064 9.405 206.142C9.483 206.142 9.56 206.18 9.637 206.258C11.727 208.58 14.089 210.748 16.721 212.761C19.353 214.696 22.373 215.741 25.779 215.896C25.857 215.896 25.934 215.936 26.011 216.013H26.36C26.437 216.013 26.515 216.051 26.592 216.129H27.869C28.257 216.051 28.605 215.974 28.915 215.896C30.156 215.663 31.3395 215.19 32.399 214.503C33.559 213.806 34.45 212.954 35.069 211.948L35.302 211.483L35.534 211.019C35.689 210.477 35.805 209.974 35.883 209.509C35.96 209.045 35.999 208.619 35.999 208.232C35.999 206.142 35.069 204.4 33.212 203.006C31.4805 201.563 29.517 200.425 27.405 199.638C26.6107 199.345 25.7954 199.112 24.966 198.942C24.2379 198.722 23.5021 198.528 22.76 198.361H22.528C22.45 198.284 22.373 198.245 22.296 198.245C18.5304 197.327 14.9274 195.839 11.612 193.832C8.282 191.742 5.999 188.761 4.76 184.89C4.51737 184.08 4.28502 183.267 4.063 182.451C3.90406 181.567 3.78792 180.676 3.715 179.781C3.64366 179.515 3.60471 179.242 3.599 178.967V176.18C3.676 175.561 3.792 174.942 3.947 174.322C4.18741 172.741 4.57612 171.185 5.108 169.677C5.65 168.129 6.347 166.735 7.198 165.497C9.676 161.393 12.85 158.451 16.721 156.671C20.67 154.89 24.773 154 29.031 154C30.038 154 31.044 154.077 32.051 154.232C33.1384 154.31 34.2228 154.426 35.302 154.58C38.126 155.055 40.8904 155.834 43.547 156.903C46.334 157.987 48.889 159.264 51.212 160.735L44.825 175.019C42.7406 173.475 40.5256 172.115 38.205 170.955C35.883 169.793 33.367 169.213 30.657 169.213H29.727C27.947 169.445 26.283 170.258 24.734 171.651C23.186 172.967 22.412 174.4 22.412 175.948V176.645C22.489 176.877 22.605 177.109 22.76 177.342C22.915 177.884 23.186 178.387 23.573 178.852C23.96 179.316 24.386 179.742 24.85 180.129C25.702 180.826 26.94 181.484 28.567 182.103C30.192 182.645 31.896 183.187 33.677 183.729C35.147 184.116 36.579 184.503 37.973 184.89C39.367 185.2 40.528 185.51 41.457 185.82C45.792 187.368 49.044 189.961 51.212 193.6C53.379 197.161 54.502 200.955 54.579 204.98V205.561C54.579 206.026 54.541 206.491 54.463 206.955V208.232C53.999 212.258 52.683 216.09 50.515 219.729C48.425 223.368 45.599 226.155 42.038 228.091C40.7162 228.712 39.3588 229.255 37.973 229.716C36.589 230.101 35.1952 230.45 33.793 230.762C32.643 230.993 31.4792 231.148 30.309 231.226C29.1927 231.378 28.0676 231.455 26.941 231.458H25.663C21.018 231.304 16.451 230.297 11.96 228.438C7.47 226.503 3.483 223.948 0 220.774L9.289 205.909ZM225.183 159.663C218.835 163.147 213.88 168.18 210.319 174.76L210.318 174.759C209.295 176.655 208.44 178.636 207.763 180.681C207.078 182.653 206.535 184.671 206.138 186.72C205.905 187.805 205.75 188.849 205.673 189.855C205.596 190.862 205.557 191.869 205.557 192.875C205.557 199.688 207.415 206.269 211.131 212.617C214.847 218.888 219.957 223.727 226.46 227.133C228.828 228.359 231.319 229.332 233.892 230.036C236.48 230.725 239.122 231.191 241.789 231.43H243.299C243.838 231.507 244.381 231.546 244.925 231.546C252.511 231.546 259.751 229.494 266.641 225.391C273.531 221.211 278.602 215.366 281.853 207.856C282.461 206.344 282.965 204.792 283.363 203.211C283.821 201.617 284.132 199.985 284.292 198.334C284.447 197.559 284.525 196.785 284.525 196.011C284.602 195.159 284.641 194.346 284.641 193.572C284.641 187.148 283.131 180.992 280.112 175.108C277.093 169.147 272.835 164.386 267.338 160.824C264.789 159.201 262.061 157.876 259.209 156.876C256.465 155.88 253.623 155.18 250.731 154.786C249.802 154.708 248.835 154.631 247.828 154.553C246.899 154.476 245.97 154.437 245.041 154.437C238.151 154.437 231.531 156.179 225.183 159.663ZM298.328 229.744V155.77H317.838L345.709 193.744C346.429 194.869 347.088 196.032 347.683 197.228C348.387 198.402 349.045 199.603 349.657 200.828L351.051 203.848C351.515 204.854 351.98 205.821 352.444 206.75C352.371 205.932 352.255 205.118 352.096 204.312C352.019 203.538 351.941 202.725 351.864 201.873C351.706 200.289 351.59 198.702 351.515 197.112C351.435 195.449 351.396 193.783 351.399 192.118V155.77H370.792V229.744H351.399L323.296 191.538C322.522 190.609 321.786 189.525 321.09 188.287C320.386 186.955 319.727 185.599 319.116 184.222C318.666 183.247 318.202 182.279 317.722 181.319C317.363 180.379 316.975 179.449 316.561 178.532C316.948 180.932 317.258 183.371 317.49 185.848C317.722 188.325 317.832 190.803 317.838 193.28V229.744H298.328ZM405.788 155.77L380.356 229.744H400.33L404.162 216.389H432.73L436.446 229.744H456.652L430.988 155.77H405.788ZM408.46 202.105L416.008 177.602C416.315 176.527 416.587 175.443 416.821 174.35C417.137 173.239 417.408 172.116 417.633 170.983C417.71 170.828 417.75 170.712 417.75 170.634C417.75 170.48 417.788 170.325 417.866 170.17C417.943 169.705 418.021 169.279 418.098 168.892C418.253 168.428 418.369 168.002 418.446 167.615C418.524 168.002 418.601 168.428 418.679 168.892C418.756 169.28 418.872 169.705 419.027 170.17C419.269 171.453 419.54 172.731 419.84 174.002C420.216 175.206 420.603 176.406 421.001 177.602L428.55 202.105H408.46ZM263.158 201.353C263.39 200.579 263.584 199.766 263.738 198.914C263.971 198.063 264.126 197.211 264.203 196.359C264.281 195.818 264.319 195.276 264.319 194.734C264.397 194.192 264.435 193.688 264.435 193.224C264.435 192.757 264.396 192.291 264.319 191.83V190.437C263.932 187.107 262.926 183.895 261.299 180.798C259.674 177.701 257.429 175.301 254.564 173.598C253.79 173.211 253.016 172.863 252.242 172.553C251.468 172.243 250.693 171.973 249.919 171.74C249.151 171.586 248.376 171.47 247.597 171.392C246.832 171.238 246.054 171.16 245.274 171.159C241.326 171.159 237.687 172.399 234.358 174.876C231.029 177.353 228.706 180.643 227.39 184.746L227.158 185.211V185.675C226.919 186.398 226.725 187.135 226.578 187.882C226.423 188.579 226.268 189.314 226.113 190.088L225.881 191.714V194.153C225.881 194.385 225.919 194.656 225.997 194.966C226.229 199.069 227.467 202.979 229.713 206.695C232.035 210.333 235.21 212.733 239.235 213.895L240.629 214.359C241.093 214.437 241.597 214.514 242.139 214.591L243.532 214.824H244.926C249.029 214.824 252.706 213.624 255.958 211.224C259.287 208.746 261.687 205.456 263.158 201.353ZM169.157 227.886C173.415 226.956 177.363 225.253 181.002 222.776H181.003C185.493 219.524 188.938 215.344 191.338 210.234C193.738 205.124 195.054 199.821 195.287 194.324V191.421C195.287 190.956 195.248 190.492 195.17 190.028C194.861 184.762 193.506 179.653 191.106 174.698C188.706 169.744 185.338 165.757 181.003 162.738C177.639 160.279 173.805 158.54 169.739 157.628C165.713 156.699 161.609 156.118 157.429 155.886C156.268 155.808 155.068 155.77 153.829 155.77H128.745V229.744H152.551C153.791 229.744 155.03 229.705 156.267 229.628C160.602 229.396 164.899 228.816 169.157 227.886ZM148.602 213.137C148.834 213.137 149.067 213.176 149.299 213.253H150.112C150.422 213.253 150.692 213.293 150.925 213.37H154.06C154.912 213.292 155.725 213.215 156.499 213.137C158.503 212.984 160.486 212.634 162.421 212.092C164.357 211.55 166.099 210.737 167.647 209.653C170.125 207.873 171.944 205.473 173.105 202.453C174.337 199.389 174.968 196.117 174.963 192.815V191.885C174.963 191.576 174.925 191.266 174.847 190.957C174.695 188.024 173.985 185.147 172.757 182.479C171.518 179.692 169.815 177.486 167.647 175.859C166.057 174.561 164.189 173.647 162.189 173.189C160.208 172.718 158.185 172.446 156.15 172.376H148.602V213.137ZM68.692 155.769V229.743H114.098V213.137H88.55V200.595H112.589V184.801H88.55V171.911H114.098V155.769H68.692ZM351.039 352.152C350.926 352.443 350.869 352.735 350.869 353.029C350.869 353.747 351.116 354.298 351.609 354.678C352.104 355.062 352.679 355.252 353.329 355.252C353.305 355.633 353.205 355.97 353.025 356.262C352.846 356.553 352.617 356.81 352.349 357.022C352.082 357.235 351.795 357.415 351.492 357.561C351.188 357.706 350.914 357.823 350.664 357.913L352.014 359.903C352.047 359.887 352.079 359.871 352.112 359.856L352.141 359.842L352.198 359.816C352.26 359.787 352.322 359.76 352.384 359.733C352.59 359.645 352.83 359.525 353.11 359.381C353.418 359.218 353.716 359.038 354.003 358.841C354.305 358.638 354.588 358.407 354.846 358.15C355.399 357.601 355.839 356.948 356.142 356.23C356.446 355.511 356.597 354.722 356.597 353.872C356.597 353.421 356.531 352.995 356.395 352.591C356.26 352.187 356.07 351.839 355.823 351.547C355.532 351.23 355.176 350.99 354.762 350.82C354.346 350.652 353.914 350.568 353.464 350.568C353.059 350.568 352.694 350.642 352.369 350.788C352.059 350.923 351.778 351.117 351.542 351.36C351.319 351.596 351.151 351.859 351.039 352.152ZM358.706 353.029C358.706 352.736 358.763 352.443 358.873 352.152C358.986 351.859 359.155 351.596 359.379 351.36C359.606 351.125 359.879 350.932 360.204 350.788C360.531 350.643 360.894 350.568 361.3 350.568C361.75 350.568 362.183 350.652 362.597 350.82C363.014 350.99 363.367 351.23 363.658 351.547C363.908 351.839 364.098 352.187 364.232 352.591C364.366 352.996 364.434 353.422 364.434 353.872C364.443 354.681 364.288 355.483 363.979 356.23C363.675 356.948 363.234 357.6 362.681 358.15C362.422 358.407 362.139 358.638 361.836 358.841C361.55 359.04 361.252 359.22 360.943 359.381C360.663 359.526 360.423 359.645 360.218 359.733C360.094 359.787 359.97 359.844 359.848 359.903L358.5 357.913C358.747 357.824 359.02 357.706 359.325 357.561C359.629 357.415 359.915 357.235 360.185 357.022C360.453 356.808 360.679 356.555 360.858 356.262C361.039 355.97 361.14 355.634 361.162 355.252C360.54 355.263 359.934 355.06 359.443 354.678C358.953 354.298 358.706 353.747 358.706 353.03V353.029ZM93.976 295.188C94.089 294.897 94.146 294.604 94.146 294.313H94.147C94.147 293.594 93.899 293.045 93.407 292.664C92.913 292.282 92.339 292.092 91.689 292.092C91.712 291.709 91.812 291.371 91.992 291.079C92.172 290.787 92.395 290.534 92.665 290.321C92.935 290.107 93.222 289.928 93.525 289.782C93.7943 289.652 94.0696 289.534 94.35 289.43L93.002 287.442C92.958 287.464 92.835 287.522 92.632 287.609C92.429 287.698 92.187 287.817 91.907 287.961C91.5989 288.123 91.3007 288.303 91.014 288.501C90.7106 288.703 90.4278 288.934 90.17 289.191C89.617 289.741 89.1764 290.393 88.873 291.111C88.57 291.831 88.418 292.619 88.418 293.471C88.4158 293.906 88.4841 294.338 88.62 294.751C88.7421 295.133 88.9367 295.488 89.193 295.796C89.4882 296.113 89.8503 296.361 90.253 296.521C90.6648 296.689 91.1054 296.774 91.55 296.773C92.2723 296.783 92.9672 296.497 93.473 295.981C93.6917 295.753 93.8627 295.483 93.976 295.188ZM86.31 294.313C86.3052 294.935 86.0647 295.532 85.637 295.983C85.4014 296.225 85.1208 296.419 84.811 296.554C84.485 296.7 84.119 296.774 83.715 296.774C83.27 296.775 82.8291 296.69 82.417 296.522C82.0144 296.361 81.6524 296.113 81.357 295.796C81.1 295.488 80.9054 295.133 80.784 294.751C80.6476 294.338 80.5793 293.906 80.582 293.471C80.582 292.619 80.732 291.831 81.037 291.111C81.34 290.393 81.7806 289.74 82.334 289.191C82.581 288.943 82.861 288.714 83.177 288.5C83.491 288.288 83.789 288.107 84.07 287.96C84.35 287.816 84.59 287.698 84.794 287.61L84.8507 287.584C85.0195 287.508 85.1254 287.461 85.166 287.44L86.513 289.428C86.265 289.518 85.991 289.636 85.687 289.781C85.384 289.928 85.097 290.107 84.83 290.319C84.5625 290.531 84.3337 290.788 84.154 291.078C83.975 291.37 83.874 291.708 83.852 292.09C84.502 292.09 85.076 292.28 85.57 292.663C86.063 293.045 86.31 293.593 86.31 294.313ZM335.475 351.187H331.66L343.541 330.551H347.317L335.475 351.187ZM331.479 352.675C330.243 352.675 329.298 353.655 329.298 354.893C329.298 356.131 330.244 357.073 331.479 357.073C332.711 357.073 333.696 356.129 333.696 354.893C333.696 353.657 332.711 352.675 331.479 352.675ZM306.217 345.26L305.127 347.148C305.962 349.619 309.266 348.239 310.396 346.277L312.211 343.153C313.556 340.863 310.577 339.192 306.217 345.26ZM330.219 350.128C330.001 349.548 329.347 348.965 328.802 348.821L328.547 349.113C327.218 350.673 325.691 352.052 324.005 353.217C324.475 351.806 324.722 350.098 324.988 348.252C325.4 345.393 325.86 342.203 327.273 339.267L324.438 337.74C324.16 338.122 323.822 338.593 323.437 339.132L323.436 339.133L323.436 339.133C321.659 341.616 318.852 345.537 316.046 348.821C316.052 348.831 316.062 348.839 316.067 348.846C316.061 348.843 316.054 348.839 316.047 348.835C316.039 348.829 316.03 348.824 316.022 348.821L315.769 349.113C313.042 352.273 310.392 354.779 308.719 354.779C307.885 354.779 307.085 353.943 307.085 352.236V350.674C309.737 351.001 312.535 349.256 314.315 346.17L315.331 344.427C318.853 338.397 313.114 336.397 309.263 339.923L314.638 330.586H310.859L300.084 349.281C299.877 349.098 299.645 348.944 299.395 348.824L299.139 349.116C296.416 352.276 292.928 354.782 290.276 354.782C287.951 354.782 286.571 353.329 288.315 350.278L292.199 343.521C294.379 339.779 298.231 340.397 295.977 344.321L295.433 345.265H298.523L299.068 344.321C301.102 340.833 299.139 338.217 296.053 338.217C293.002 338.217 290.566 339.817 288.968 342.577L285.25 348.957C285.23 348.945 285.21 348.933 285.19 348.921C285.131 348.885 285.072 348.849 285.017 348.825L284.762 349.117C282.038 352.277 279.387 354.783 277.715 354.783C276.879 354.783 276.409 354.203 277.279 352.713L285.345 338.58H281.565L274.846 350.314C271.973 352.929 269.761 354.382 269.032 354.056C268.156 353.686 268.905 352.44 269.396 351.624C269.434 351.56 269.471 351.499 269.505 351.441L276.879 338.58H273.101L265.763 351.275C265.257 351.736 264.454 352.166 263.73 352.555C263.286 352.793 262.872 353.015 262.573 353.219C263.044 351.807 263.29 350.099 263.557 348.252V348.252L263.557 348.251C263.969 345.393 264.43 342.204 265.842 339.269L263.01 337.742C261.447 339.885 252.727 351.44 249.312 355.435C249.637 355.907 250.184 356.38 250.728 356.743C252.871 354.273 260.066 345.009 261.41 343.229C260.909 344.547 260.667 346.219 260.43 347.857C259.961 351.094 259.511 354.201 257.122 354.201C255.852 354.201 255.342 352.819 255.342 352.819L252.981 354.055C252.981 354.055 253.671 357.105 257.121 357.105C257.455 357.105 257.757 357.075 258.085 357.042L258.085 357.042L258.177 357.033C258.184 357.033 258.19 357.032 258.197 357.03C258.203 357.028 258.209 357.025 258.215 357.022C258.22 357.02 258.225 357.018 258.23 357.015L258.23 357.015C258.241 357.01 258.251 357.004 258.262 357.001L258.267 356.999L258.27 356.998C258.275 356.998 258.279 356.997 258.283 356.997C260.203 356.743 262.861 355.859 264.643 354.627C264.631 356.164 265.559 357.105 267.143 357.105C269.211 357.105 271.538 355.216 273.353 353.473C272.992 355.508 274.188 357.105 276.588 357.105C278.934 357.105 281.547 355.219 284.025 352.742C284.059 355.252 285.993 357.105 289.151 357.105C292.217 357.105 295.265 355.392 297.892 353.089L295.787 356.743H299.603L303.926 349.223V352.237C303.926 355.469 304.543 357.105 307.596 357.105C310.719 357.105 314.317 353.764 317.441 350.13C317.439 350.127 317.437 350.124 317.434 350.12C317.428 350.113 317.422 350.105 317.421 350.096C317.435 350.108 317.452 350.119 317.468 350.13C319.181 348.156 320.733 346.065 321.971 344.396C322.282 343.977 322.574 343.584 322.843 343.226C322.343 344.544 322.102 346.214 321.865 347.852C321.396 351.09 320.946 354.199 318.556 354.199C317.286 354.199 316.776 352.817 316.776 352.817L314.414 354.053C314.414 354.053 315.105 357.103 318.556 357.103C318.884 357.103 319.182 357.074 319.508 357.041L319.612 357.031C319.628 357.031 319.643 357.024 319.659 357.016C319.678 357.006 319.697 356.996 319.717 356.996C323.57 356.484 327.385 353.434 330.218 350.126L330.219 350.128ZM215.445 349.042H215.628L218.388 344.32C220.676 340.395 217.044 338.615 214.391 343.12L212.575 346.208L209.705 351.185C207.452 355.109 211.776 355.689 213.555 352.639L213.592 352.566C213.374 352.204 213.229 351.769 213.229 351.297C213.229 350.059 214.21 349.042 215.445 349.042ZM190.198 363.173C189.398 364.59 188.126 364.373 188.126 363.357C188.126 362.377 189.035 361.251 191.941 360.123L190.198 363.173ZM155.353 354.746C156.915 354.746 159.168 353.038 161.456 349.443L164.397 344.283C166.251 340.867 162.219 339.96 160.184 343.482L154.917 352.675C154.046 354.166 154.518 354.746 155.353 354.746ZM149.402 334.693C150.528 332.766 151.764 331.931 152.817 331.931C154.235 331.931 154.888 332.875 154.888 334.256C154.888 337.78 150.524 345.089 144.716 344.137H143.953L149.402 334.693ZM241.925 349.079L242.179 348.787L242.18 348.788C242.69 349.006 243.343 349.588 243.598 350.099C240.472 353.732 236.878 357.074 233.752 357.074C230.699 357.074 229.574 354.497 231.172 351.698L236.076 343.16C237.712 340.362 235.132 339.419 229.355 346.649L223.579 356.712H219.764L222.304 352.318C220.618 353.248 218.75 353.768 217.37 353.768H216.535C212.297 359.126 205.269 357.923 205.789 352.646C202.537 355.865 199.423 357.824 196.264 358.818L193.358 363.796C190.636 368.446 185.076 367.682 185.076 364.049C185.076 361.217 188.273 359.108 193.396 357.584L195.467 354.024C193.758 355.548 191.689 357.074 189.872 357.074C187.99 357.074 187.031 355.742 187.484 353.664C185.31 355.654 183.077 357.074 181.044 357.074C177.993 357.074 176.867 354.498 178.465 351.698L183.369 343.164C185.004 340.365 182.424 339.422 176.647 346.652L170.871 356.715H167.057L168.449 354.304C166.507 355.953 164.539 357.077 162.729 357.077C160.805 357.077 159.641 356.062 159.461 354.608C157.644 356.097 155.755 357.077 154.229 357.077C151.554 357.077 150.358 355.096 151.181 352.722L150.957 352.935L150.957 352.935C148.467 355.304 146.604 357.077 142.5 357.077C137.16 357.077 135.599 351.993 138.25 347.415L139.375 345.451C136.325 343.853 134.617 340.946 134.617 337.933C134.617 335.387 135.814 332.811 138.504 330.883L139.739 333.101C138.105 334.371 137.305 336.115 137.305 337.858C137.305 339.966 138.469 342.073 140.685 343.236L146.571 333.099C148.277 330.121 150.748 328.667 152.819 328.667C155.615 328.667 157.832 330.882 157.832 334.297C157.832 335.787 157.359 337.53 156.306 339.383C153.327 344.578 148.749 346.65 144.716 346.65C143.955 346.65 143.264 346.573 142.574 346.466L141.519 348.318C139.269 352.17 140.83 354.749 143.409 354.749C147.084 354.749 149.168 352.332 151.822 349.253L151.969 349.082L152.223 348.79C152.494 348.863 152.791 349.045 153.051 349.278L156.954 342.542C158.55 339.779 161.386 338.182 163.419 338.182C165.89 338.182 167.525 340.398 167.38 341.996H169.523L163.419 352.676C162.548 354.168 163.02 354.748 163.855 354.748C165.528 354.748 168.18 352.241 170.903 349.081L171.157 348.789C171.282 348.847 171.402 348.914 171.516 348.991L177.554 338.546H181.334L179.917 341.015C181.805 339.053 183.513 338.181 185.148 338.181C187.255 338.181 188.817 340.253 187.182 343.123L181.733 352.676C180.862 354.168 181.334 354.748 182.169 354.748C183.841 354.748 186.492 352.241 189.217 349.081L189.471 348.789C189.586 348.843 189.697 348.905 189.802 348.976L195.83 338.546H199.608L192.233 351.406L192.186 351.486L192.122 351.592C191.632 352.41 190.887 353.653 191.761 354.022C192.487 354.348 194.74 352.859 197.647 350.172L204.33 338.546H208.109L197.754 356.276C200.732 355.001 203.384 352.676 206.509 349.081L206.763 348.79C206.882 348.844 206.996 348.908 207.105 348.98L208.725 346.21L210.577 342.977C212.758 339.199 215.009 338.037 217.916 338.037C221.478 338.037 223.584 341.776 221.296 345.738L217.736 351.878C219.625 351.841 221.733 350.931 223.439 349.079L223.694 348.787C223.864 348.867 224.026 348.964 224.176 349.077L230.264 338.544H234.043L232.626 341.013C234.516 339.051 236.221 338.18 237.857 338.18C239.962 338.18 241.528 340.251 239.892 343.121L234.442 352.674C233.571 354.166 234.042 354.746 234.878 354.746C236.55 354.746 239.203 352.239 241.925 349.079ZM360.81 313.215C358.52 316.956 356.195 318.736 354.598 318.736C353.763 318.736 353.291 318.156 354.161 316.666L359.428 307.473C361.463 303.949 365.495 304.858 363.642 308.273H363.677L360.81 313.215ZM318.519 318.736C320.08 318.736 322.333 317.028 324.623 313.434L327.564 308.273C329.416 304.858 325.384 303.949 323.35 307.473L318.082 316.666C317.212 318.156 317.683 318.736 318.519 318.736ZM284.706 327.164C283.909 328.581 282.636 328.364 282.636 327.348C282.636 326.367 283.508 325.241 286.415 324.114L284.706 327.164ZM296.151 295.923C295.096 295.923 293.861 296.757 292.734 298.683L287.286 308.128H288.049C297.676 310.358 302.145 295.923 296.151 295.923ZM370.398 312.78L370.143 313.07C367.423 316.23 364.769 318.737 363.096 318.737C362.261 318.737 361.789 318.157 362.659 316.666L375.448 294.542H371.669L366.112 304.133C365.458 303.079 364.222 302.171 362.659 302.171C360.624 302.171 357.792 303.77 356.193 306.53L352.495 312.91C352.482 312.903 352.469 312.895 352.456 312.887L352.431 312.872C352.373 312.837 352.315 312.802 352.261 312.778L352.006 313.07C349.283 316.23 347.006 318.736 345.334 318.736C344.497 318.736 344.027 318.156 344.896 316.666L350.346 307.111C351.983 304.241 350.418 302.169 348.312 302.169C346.676 302.169 344.972 303.04 343.08 305.004L344.497 302.534H340.718L334.681 312.981C334.566 312.904 334.446 312.836 334.321 312.778L334.065 313.07C331.342 316.23 328.691 318.736 327.019 318.736C326.184 318.736 325.713 318.156 326.583 316.666L332.686 305.984H330.542C330.688 304.386 329.054 302.169 326.582 302.169C324.547 302.169 321.712 303.768 320.114 306.527L316.462 312.833L316.256 313.067C313.534 316.226 310.506 318.732 308.836 318.732C307.999 318.732 307.529 318.152 308.399 316.662L312.177 310.051C313.484 307.761 312.866 306.418 311.632 304.928L309.526 302.384C308.981 301.694 308.981 300.931 309.744 300.204L307.782 298.061C305.638 299.988 305.457 302.13 306.8 303.874L307.129 304.31L306.995 304.499L306.995 304.5C305.337 306.842 303.139 309.947 300.732 312.775C300.773 312.834 300.818 312.892 300.866 312.95C300.906 312.998 300.947 313.047 300.99 313.095C297.877 316.675 295.231 318.99 292.26 320.257L297.055 312.047H293.277L292.878 312.702C290.88 316.226 288.59 318.733 285.648 318.733C283.068 318.733 282.598 316.154 284.848 312.303L285.903 310.451C286.611 310.568 287.327 310.628 288.045 310.632C301.488 310.632 307.991 292.65 296.149 292.65C294.077 292.65 291.605 294.104 289.899 297.082L284.014 307.217C281.798 306.056 280.636 303.949 280.636 301.842C280.636 300.099 281.436 298.354 283.068 297.084L281.835 294.867C279.145 296.793 277.947 299.371 277.947 301.914C277.947 304.93 279.656 307.836 282.707 309.434L281.58 311.397C278.928 315.975 279.4 321.06 284.742 321.06C286.34 321.06 287.683 320.588 288.847 319.86L287.864 321.57C282.744 323.13 279.582 325.201 279.582 328.035C279.582 331.667 285.142 332.431 287.864 327.781L290.771 322.804C294.696 321.569 298.547 318.881 302.689 314.085C302.622 313.959 302.543 313.84 302.453 313.73C304.131 311.759 305.555 309.856 308.403 305.984L308.91 306.603C309.383 307.219 309.564 307.983 309.128 308.747L305.131 315.684C303.532 318.479 304.659 321.058 307.711 321.058C309.61 321.058 312.059 319.819 314.096 318.034C314.052 319.772 315.24 321.058 317.395 321.058C318.92 321.058 320.81 320.078 322.625 318.588C322.808 320.042 323.972 321.058 325.895 321.058C327.705 321.058 329.672 319.933 331.615 318.284L330.223 320.696H334.036L339.813 310.631C345.59 303.402 348.17 304.347 346.533 307.144L341.63 315.682C340.033 318.48 341.157 321.058 344.208 321.058C346.218 321.058 348.044 319.674 350.19 317.725C349.99 319.618 351.194 321.058 353.472 321.058C354.997 321.058 356.886 320.078 358.704 318.588C358.886 320.043 360.049 321.058 361.973 321.058C365.098 321.058 368.693 317.717 371.818 314.082C371.562 313.578 370.909 312.997 370.398 312.78ZM261.897 308.274C264.151 304.35 260.298 303.733 258.118 307.475L255.684 311.725C257.1 312.233 259.535 312.307 261.352 309.218L261.897 308.274ZM255.067 321.062C259.354 321.062 263.607 317.721 266.729 314.087C266.476 313.577 265.821 312.997 265.312 312.779L265.059 313.071C262.333 316.231 258.846 318.737 256.192 318.737C253.867 318.737 252.487 317.284 254.23 314.232L254.593 313.579C257.028 314.595 261.605 314.124 264.439 309.219L264.984 308.275C267.019 304.786 265.057 302.171 261.968 302.171C258.918 302.171 256.484 303.769 254.885 306.53L251.206 312.843C251.168 312.823 251.13 312.795 251.094 312.779L250.839 313.071C248.115 316.231 245.464 318.737 243.792 318.737C242.956 318.737 242.486 318.157 243.355 316.666L248.805 307.111C250.44 304.241 248.877 302.169 246.769 302.169C245.134 302.169 243.39 303.078 241.503 305.04L247.533 294.54H243.755L233.099 313.03C232.964 312.932 232.819 312.847 232.667 312.778L232.412 313.069C229.687 316.23 227.036 318.736 225.364 318.736C224.529 318.736 224.057 318.156 224.927 316.666L233.029 302.532H236.119L237.209 300.715H234.084L237.644 294.54H233.866L230.306 300.715H226.891L225.801 302.532H229.251L221.658 315.685C220.06 318.484 221.186 321.062 224.237 321.062C226.115 321.062 228.163 319.849 230.177 318.098L228.678 320.698H232.493L238.233 310.706C244.046 303.404 246.626 304.349 244.991 307.146L240.086 315.684C238.488 318.482 239.614 321.06 242.666 321.06C244.962 321.06 247.512 319.255 249.942 316.855C250.052 319.286 251.975 321.062 255.067 321.062ZM131.372 308.273C133.626 304.349 129.776 303.732 127.596 307.474L125.161 311.723C126.577 312.232 129.013 312.305 130.828 309.217L131.372 308.273ZM150.715 316.665L155.983 307.474C158.017 303.948 162.05 304.857 160.196 308.273L157.254 313.432C154.966 317.027 152.711 318.736 151.15 318.736C150.316 318.736 149.843 318.155 150.715 316.666V316.665ZM208.475 308.273C210.729 304.349 206.879 303.732 204.699 307.474L202.264 311.723C203.68 312.231 206.115 312.305 207.93 309.217L208.475 308.273ZM146.891 317C146.264 319.24 147.461 321.06 150.025 321.06C151.55 321.06 153.44 320.08 155.255 318.591C155.438 320.044 156.601 321.061 158.525 321.061C160.538 321.061 162.743 319.671 164.894 317.715C164.476 319.757 165.433 321.061 167.294 321.061C169.367 321.061 171.692 319.171 173.507 317.427C173.143 319.463 174.344 321.061 176.741 321.061C179.866 321.061 183.461 317.719 186.586 314.085C186.571 314.056 186.551 314.026 186.53 313.997C186.515 313.976 186.499 313.955 186.486 313.934C188.126 312.026 189.614 310.027 190.816 308.412L190.816 308.412L190.816 308.411L190.817 308.411L190.817 308.41C191.145 307.969 191.452 307.558 191.734 307.184C191.233 308.502 190.991 310.173 190.754 311.812V311.812C190.285 315.048 189.835 318.156 187.446 318.156C186.176 318.156 185.666 316.774 185.666 316.774L183.303 318.009C183.303 318.009 183.993 321.061 187.445 321.061C187.769 321.061 188.063 321.032 188.382 321L188.499 320.988C188.518 320.988 188.536 320.979 188.554 320.97C188.572 320.962 188.589 320.953 188.607 320.953C191.383 320.586 194.136 318.897 196.52 316.744C196.578 319.23 198.506 321.061 201.645 321.061C205.932 321.061 210.183 317.72 213.307 314.085C213.053 313.575 212.399 312.995 211.891 312.777L211.637 313.069C208.912 316.229 205.424 318.736 202.774 318.736C200.448 318.736 199.067 317.282 200.811 314.231L201.175 313.577C203.607 314.593 208.185 314.122 211.02 309.217L211.565 308.274C213.599 304.785 211.637 302.17 208.55 302.17C205.5 302.17 203.063 303.768 201.467 306.528L197.797 312.822C197.781 312.817 197.765 312.808 197.749 312.8C197.73 312.791 197.712 312.781 197.693 312.776L197.439 313.067C196.11 314.627 194.583 316.007 192.897 317.173C193.368 315.761 193.614 314.053 193.881 312.206V312.206L193.881 312.206C194.294 309.348 194.755 306.158 196.167 303.222L193.334 301.696C193.05 302.086 192.705 302.568 192.309 303.12L192.309 303.12C190.53 305.605 187.736 309.507 184.941 312.776C184.952 312.791 184.964 312.806 184.976 312.822C184.984 312.831 184.992 312.841 185 312.85L185.002 312.853L185.003 312.854C185.019 312.874 185.036 312.894 185.051 312.914L184.916 313.067C182.192 316.227 179.54 318.734 177.868 318.734C177.033 318.734 176.561 318.154 177.432 316.664L185.497 302.529H181.718L174.998 314.263C172.128 316.879 169.913 318.332 169.184 318.005C168.308 317.635 169.059 316.387 169.55 315.57L169.551 315.568L169.56 315.553C169.581 315.52 169.6 315.487 169.619 315.455C169.632 315.433 169.645 315.411 169.658 315.39L177.031 302.53H173.253L167.24 312.935L167.206 312.914C167.12 312.861 167.034 312.808 166.953 312.774L166.699 313.064C163.974 316.224 161.323 318.731 159.651 318.731C158.816 318.731 158.344 318.151 159.215 316.661L165.318 305.979H163.174C163.32 304.381 161.686 302.163 159.214 302.163C157.18 302.163 154.346 303.763 152.748 306.523L148.918 313.135C148.741 312.991 148.548 312.869 148.342 312.772L148.088 313.062C145.364 316.222 142.23 318.729 139.578 318.729C137.254 318.729 135.872 317.276 137.615 314.225L141.502 307.469C143.682 303.727 147.533 304.344 145.279 308.267L144.734 309.212H147.824L148.368 308.267C150.402 304.78 148.441 302.163 145.354 302.163C142.302 302.163 140.22 303.763 138.624 306.523L134.868 312.966C134.758 312.892 134.642 312.827 134.521 312.772L134.267 313.062C131.543 316.222 128.32 318.729 125.669 318.729C123.343 318.729 121.962 317.276 123.706 314.225L124.069 313.571C126.503 314.589 131.081 314.116 133.915 309.213L134.46 308.267C136.494 304.781 134.532 302.164 131.444 302.164C128.394 302.164 125.958 303.762 124.361 306.524L120.401 313.316C118.038 317.349 120.074 321.054 124.541 321.054C127.87 321.054 130.554 319.039 133.329 316.437C133.231 319.074 135.187 321.054 138.45 321.054C141.538 321.06 144.25 319.326 146.891 317ZM113.07 297.809L110.019 303.04V303.041C113.87 302.968 116.015 302.132 117.465 299.408C119.355 295.847 115.83 293.052 113.07 297.809ZM105.951 320.26C103.698 320.26 101.918 319.752 100.501 318.954C101.155 318.19 101.808 317.245 102.391 316.265L108.747 305.257L109.764 305.365C118.63 307.22 115.105 320.26 105.951 320.26ZM115.288 304.785C122.916 302.204 123.497 292.65 115.977 292.65C113.906 292.65 111.436 294.103 109.729 297.082L99.556 314.666C99.1362 315.421 98.6503 316.138 98.104 316.807C95.488 313.212 96.251 307.836 99.92 305.473L98.393 303.547C90.473 308.597 92.799 323.164 106.023 323.164C117.322 323.166 122.553 309.618 115.288 304.785Z" fill="white"/>
</svg>
